<mxfile host="Electron" modified="2023-04-28T00:10:58.946Z" agent="Mozilla/5.0 (Windows NT 10.0; Win64; x64) AppleWebKit/537.36 (KHTML, like Gecko) draw.io/21.2.1 Chrome/112.0.5615.87 Electron/24.1.2 Safari/537.36" etag="vT19v9Ys1dF9Me0bRlmW" version="21.2.1" type="device">
  <diagram name="Sayfa -1" id="1VfGgLXpO2YLK4OjEldR">
    <mxGraphModel dx="1276" dy="623" grid="1" gridSize="10" guides="1" tooltips="1" connect="1" arrows="1" fold="1" page="1" pageScale="1" pageWidth="827" pageHeight="1169" math="0" shadow="0">
      <root>
        <mxCell id="0" />
        <mxCell id="1" parent="0" />
        <mxCell id="rzmeEAUV-gNBz53BcbZ_-18" value="" style="ellipse;whiteSpace=wrap;html=1;aspect=fixed;fillColor=#66B2FF;" parent="1" vertex="1">
          <mxGeometry x="20" y="675" width="80" height="80" as="geometry" />
        </mxCell>
        <mxCell id="x2CVY-ZXqYDdgK4kVcqY-9" value="" style="edgeStyle=orthogonalEdgeStyle;rounded=0;orthogonalLoop=1;jettySize=auto;html=1;entryX=0;entryY=0.5;entryDx=0;entryDy=0;exitX=1;exitY=0.5;exitDx=0;exitDy=0;strokeColor=#FF6666;" parent="1" source="x2CVY-ZXqYDdgK4kVcqY-7" target="x2CVY-ZXqYDdgK4kVcqY-8" edge="1">
          <mxGeometry relative="1" as="geometry" />
        </mxCell>
        <mxCell id="x2CVY-ZXqYDdgK4kVcqY-7" value="&lt;font size=&quot;3&quot;&gt;0&lt;/font&gt;" style="whiteSpace=wrap;html=1;aspect=fixed;" parent="1" vertex="1">
          <mxGeometry x="59" y="419" width="50" height="50" as="geometry" />
        </mxCell>
        <mxCell id="x2CVY-ZXqYDdgK4kVcqY-19" style="edgeStyle=none;rounded=0;orthogonalLoop=1;jettySize=auto;html=1;exitX=1;exitY=0.5;exitDx=0;exitDy=0;entryX=0;entryY=0.5;entryDx=0;entryDy=0;strokeColor=#FF6666;" parent="1" source="x2CVY-ZXqYDdgK4kVcqY-8" target="x2CVY-ZXqYDdgK4kVcqY-10" edge="1">
          <mxGeometry relative="1" as="geometry" />
        </mxCell>
        <mxCell id="x2CVY-ZXqYDdgK4kVcqY-20" style="edgeStyle=none;rounded=0;orthogonalLoop=1;jettySize=auto;html=1;exitX=1;exitY=0.5;exitDx=0;exitDy=0;entryX=0;entryY=0.5;entryDx=0;entryDy=0;" parent="1" source="x2CVY-ZXqYDdgK4kVcqY-8" target="x2CVY-ZXqYDdgK4kVcqY-13" edge="1">
          <mxGeometry relative="1" as="geometry" />
        </mxCell>
        <mxCell id="x2CVY-ZXqYDdgK4kVcqY-8" value="&lt;font size=&quot;3&quot;&gt;1&lt;br&gt;(6.2)&lt;br&gt;&lt;/font&gt;" style="whiteSpace=wrap;html=1;aspect=fixed;fillColor=#E6FFCC;" parent="1" vertex="1">
          <mxGeometry x="170" y="419" width="50" height="50" as="geometry" />
        </mxCell>
        <mxCell id="x2CVY-ZXqYDdgK4kVcqY-22" style="edgeStyle=none;rounded=0;orthogonalLoop=1;jettySize=auto;html=1;exitX=1;exitY=0.5;exitDx=0;exitDy=0;entryX=0;entryY=0.5;entryDx=0;entryDy=0;strokeColor=#FF6666;" parent="1" source="x2CVY-ZXqYDdgK4kVcqY-10" target="x2CVY-ZXqYDdgK4kVcqY-15" edge="1">
          <mxGeometry relative="1" as="geometry" />
        </mxCell>
        <mxCell id="x2CVY-ZXqYDdgK4kVcqY-10" value="&lt;font size=&quot;3&quot;&gt;2&lt;br&gt;(5.2)&lt;br&gt;&lt;/font&gt;" style="whiteSpace=wrap;html=1;aspect=fixed;fillColor=#E6FFCC;" parent="1" vertex="1">
          <mxGeometry x="280" y="339" width="50" height="50" as="geometry" />
        </mxCell>
        <mxCell id="x2CVY-ZXqYDdgK4kVcqY-23" style="edgeStyle=none;rounded=0;orthogonalLoop=1;jettySize=auto;html=1;exitX=1;exitY=0.5;exitDx=0;exitDy=0;entryX=0;entryY=0.5;entryDx=0;entryDy=0;" parent="1" source="x2CVY-ZXqYDdgK4kVcqY-13" target="x2CVY-ZXqYDdgK4kVcqY-15" edge="1">
          <mxGeometry relative="1" as="geometry">
            <mxPoint x="409" y="429" as="targetPoint" />
          </mxGeometry>
        </mxCell>
        <mxCell id="x2CVY-ZXqYDdgK4kVcqY-13" value="&lt;font size=&quot;3&quot;&gt;3&lt;br&gt;(3.2)&lt;br&gt;&lt;/font&gt;" style="whiteSpace=wrap;html=1;aspect=fixed;fillColor=#E6FFCC;" parent="1" vertex="1">
          <mxGeometry x="280" y="469" width="50" height="50" as="geometry" />
        </mxCell>
        <mxCell id="x2CVY-ZXqYDdgK4kVcqY-25" value="" style="edgeStyle=none;rounded=0;orthogonalLoop=1;jettySize=auto;html=1;entryX=0;entryY=1;entryDx=0;entryDy=0;exitX=1;exitY=0.5;exitDx=0;exitDy=0;strokeColor=#FF6666;" parent="1" source="x2CVY-ZXqYDdgK4kVcqY-15" target="x2CVY-ZXqYDdgK4kVcqY-24" edge="1">
          <mxGeometry relative="1" as="geometry" />
        </mxCell>
        <mxCell id="x2CVY-ZXqYDdgK4kVcqY-28" style="edgeStyle=none;rounded=0;orthogonalLoop=1;jettySize=auto;html=1;exitX=0.5;exitY=1;exitDx=0;exitDy=0;entryX=0;entryY=0.25;entryDx=0;entryDy=0;" parent="1" source="x2CVY-ZXqYDdgK4kVcqY-15" target="x2CVY-ZXqYDdgK4kVcqY-26" edge="1">
          <mxGeometry relative="1" as="geometry" />
        </mxCell>
        <mxCell id="x2CVY-ZXqYDdgK4kVcqY-32" style="edgeStyle=none;rounded=0;orthogonalLoop=1;jettySize=auto;html=1;exitX=1;exitY=0.5;exitDx=0;exitDy=0;entryX=0;entryY=0.5;entryDx=0;entryDy=0;" parent="1" source="x2CVY-ZXqYDdgK4kVcqY-15" target="x2CVY-ZXqYDdgK4kVcqY-30" edge="1">
          <mxGeometry relative="1" as="geometry" />
        </mxCell>
        <mxCell id="x2CVY-ZXqYDdgK4kVcqY-15" value="&lt;font size=&quot;3&quot;&gt;4&lt;br&gt;(6.7)&lt;br&gt;&lt;/font&gt;" style="whiteSpace=wrap;html=1;aspect=fixed;fillColor=#FFF2CC;" parent="1" vertex="1">
          <mxGeometry x="389" y="419" width="50" height="50" as="geometry" />
        </mxCell>
        <mxCell id="x2CVY-ZXqYDdgK4kVcqY-29" style="edgeStyle=none;rounded=0;orthogonalLoop=1;jettySize=auto;html=1;exitX=0.5;exitY=1;exitDx=0;exitDy=0;entryX=0.5;entryY=0;entryDx=0;entryDy=0;strokeColor=#FF6666;" parent="1" source="x2CVY-ZXqYDdgK4kVcqY-24" target="x2CVY-ZXqYDdgK4kVcqY-26" edge="1">
          <mxGeometry relative="1" as="geometry">
            <mxPoint x="499" y="529" as="targetPoint" />
          </mxGeometry>
        </mxCell>
        <mxCell id="x2CVY-ZXqYDdgK4kVcqY-33" style="edgeStyle=none;rounded=0;orthogonalLoop=1;jettySize=auto;html=1;exitX=1;exitY=0.5;exitDx=0;exitDy=0;entryX=0;entryY=0.5;entryDx=0;entryDy=0;" parent="1" source="x2CVY-ZXqYDdgK4kVcqY-24" target="x2CVY-ZXqYDdgK4kVcqY-30" edge="1">
          <mxGeometry relative="1" as="geometry">
            <mxPoint x="609" y="559" as="targetPoint" />
          </mxGeometry>
        </mxCell>
        <mxCell id="x2CVY-ZXqYDdgK4kVcqY-24" value="&lt;font size=&quot;3&quot;&gt;5&lt;br&gt;(3.2)&lt;br&gt;&lt;/font&gt;" style="whiteSpace=wrap;html=1;aspect=fixed;fillColor=#FFF2CC;" parent="1" vertex="1">
          <mxGeometry x="480" y="339" width="50" height="50" as="geometry" />
        </mxCell>
        <mxCell id="x2CVY-ZXqYDdgK4kVcqY-31" value="" style="edgeStyle=none;rounded=0;orthogonalLoop=1;jettySize=auto;html=1;exitX=1;exitY=0.5;exitDx=0;exitDy=0;entryX=0;entryY=0.5;entryDx=0;entryDy=0;" parent="1" source="x2CVY-ZXqYDdgK4kVcqY-26" target="x2CVY-ZXqYDdgK4kVcqY-30" edge="1">
          <mxGeometry relative="1" as="geometry">
            <mxPoint x="709" y="519" as="targetPoint" />
          </mxGeometry>
        </mxCell>
        <mxCell id="x2CVY-ZXqYDdgK4kVcqY-26" value="&lt;font size=&quot;3&quot;&gt;6&lt;br&gt;(3.0)&lt;br&gt;&lt;/font&gt;" style="whiteSpace=wrap;html=1;aspect=fixed;fillColor=#CCE5FF;" parent="1" vertex="1">
          <mxGeometry x="500" y="490" width="50" height="50" as="geometry" />
        </mxCell>
        <mxCell id="x2CVY-ZXqYDdgK4kVcqY-35" value="" style="edgeStyle=none;rounded=0;orthogonalLoop=1;jettySize=auto;html=1;entryX=0.5;entryY=0;entryDx=0;entryDy=0;exitX=0.5;exitY=1;exitDx=0;exitDy=0;" parent="1" source="x2CVY-ZXqYDdgK4kVcqY-30" target="x2CVY-ZXqYDdgK4kVcqY-34" edge="1">
          <mxGeometry relative="1" as="geometry" />
        </mxCell>
        <mxCell id="x2CVY-ZXqYDdgK4kVcqY-30" value="&lt;font size=&quot;3&quot;&gt;7&lt;br&gt;(2.1)&lt;br&gt;&lt;/font&gt;" style="whiteSpace=wrap;html=1;aspect=fixed;fillColor=#CCE5FF;" parent="1" vertex="1">
          <mxGeometry x="620" y="400" width="50" height="50" as="geometry" />
        </mxCell>
        <mxCell id="x2CVY-ZXqYDdgK4kVcqY-38" value="" style="edgeStyle=none;rounded=0;orthogonalLoop=1;jettySize=auto;html=1;entryX=0;entryY=0.5;entryDx=0;entryDy=0;exitX=1;exitY=0.5;exitDx=0;exitDy=0;strokeColor=#FF6666;" parent="1" source="x2CVY-ZXqYDdgK4kVcqY-34" target="x2CVY-ZXqYDdgK4kVcqY-37" edge="1">
          <mxGeometry relative="1" as="geometry" />
        </mxCell>
        <mxCell id="x2CVY-ZXqYDdgK4kVcqY-41" style="edgeStyle=none;rounded=0;orthogonalLoop=1;jettySize=auto;html=1;exitX=1;exitY=0.5;exitDx=0;exitDy=0;entryX=0;entryY=0.5;entryDx=0;entryDy=0;" parent="1" source="x2CVY-ZXqYDdgK4kVcqY-34" target="x2CVY-ZXqYDdgK4kVcqY-39" edge="1">
          <mxGeometry relative="1" as="geometry" />
        </mxCell>
        <mxCell id="x2CVY-ZXqYDdgK4kVcqY-40" value="" style="edgeStyle=none;rounded=0;orthogonalLoop=1;jettySize=auto;html=1;entryX=0.5;entryY=0;entryDx=0;entryDy=0;exitX=0.5;exitY=1;exitDx=0;exitDy=0;strokeColor=#FF6666;" parent="1" source="x2CVY-ZXqYDdgK4kVcqY-37" target="x2CVY-ZXqYDdgK4kVcqY-39" edge="1">
          <mxGeometry relative="1" as="geometry" />
        </mxCell>
        <mxCell id="x2CVY-ZXqYDdgK4kVcqY-39" value="&lt;font size=&quot;3&quot;&gt;10&lt;br&gt;(2.8)&lt;br&gt;&lt;/font&gt;" style="whiteSpace=wrap;html=1;aspect=fixed;fillColor=#E6D0DE;" parent="1" vertex="1">
          <mxGeometry x="760" y="560" width="50" height="50" as="geometry" />
        </mxCell>
        <mxCell id="x2CVY-ZXqYDdgK4kVcqY-37" value="&lt;font size=&quot;3&quot;&gt;9&lt;br&gt;(3.7)&lt;br&gt;&lt;/font&gt;" style="whiteSpace=wrap;html=1;aspect=fixed;fillColor=#E6D0DE;" parent="1" vertex="1">
          <mxGeometry x="720" y="450" width="50" height="50" as="geometry" />
        </mxCell>
        <mxCell id="rzmeEAUV-gNBz53BcbZ_-4" value="" style="edgeStyle=none;rounded=0;orthogonalLoop=1;jettySize=auto;html=1;exitX=1;exitY=0.5;exitDx=0;exitDy=0;entryX=0;entryY=0.5;entryDx=0;entryDy=0;strokeColor=#FF6666;" parent="1" source="x2CVY-ZXqYDdgK4kVcqY-26" target="x2CVY-ZXqYDdgK4kVcqY-34" edge="1">
          <mxGeometry relative="1" as="geometry">
            <mxPoint x="615" y="585" as="sourcePoint" />
            <mxPoint x="1100" y="585" as="targetPoint" />
          </mxGeometry>
        </mxCell>
        <mxCell id="x2CVY-ZXqYDdgK4kVcqY-34" value="&lt;font size=&quot;3&quot;&gt;8&lt;br&gt;(3.8)&lt;br&gt;&lt;/font&gt;" style="whiteSpace=wrap;html=1;aspect=fixed;fillColor=#E6D0DE;" parent="1" vertex="1">
          <mxGeometry x="630" y="520" width="50" height="50" as="geometry" />
        </mxCell>
        <mxCell id="rzmeEAUV-gNBz53BcbZ_-9" value="KRİTİK YOL" style="text;html=1;align=center;verticalAlign=middle;resizable=0;points=[];autosize=1;strokeColor=none;fillColor=none;" parent="1" vertex="1">
          <mxGeometry x="15" y="700" width="90" height="30" as="geometry" />
        </mxCell>
        <mxCell id="rzmeEAUV-gNBz53BcbZ_-10" value="&lt;font size=&quot;3&quot;&gt;1&lt;br&gt;(6.2)&lt;br&gt;&lt;/font&gt;" style="whiteSpace=wrap;html=1;aspect=fixed;fillColor=#E6FFCC;" parent="1" vertex="1">
          <mxGeometry x="140" y="690" width="50" height="50" as="geometry" />
        </mxCell>
        <mxCell id="rzmeEAUV-gNBz53BcbZ_-11" value="&lt;font size=&quot;3&quot;&gt;2&lt;br&gt;(5.2)&lt;br&gt;&lt;/font&gt;" style="whiteSpace=wrap;html=1;aspect=fixed;fillColor=#E6FFCC;" parent="1" vertex="1">
          <mxGeometry x="220" y="690" width="50" height="50" as="geometry" />
        </mxCell>
        <mxCell id="rzmeEAUV-gNBz53BcbZ_-12" value="&lt;font size=&quot;3&quot;&gt;4&lt;br&gt;(6.7)&lt;br&gt;&lt;/font&gt;" style="whiteSpace=wrap;html=1;aspect=fixed;fillColor=#FFF2CC;" parent="1" vertex="1">
          <mxGeometry x="300" y="690" width="50" height="50" as="geometry" />
        </mxCell>
        <mxCell id="rzmeEAUV-gNBz53BcbZ_-13" value="&lt;font size=&quot;3&quot;&gt;5&lt;br&gt;(3.2)&lt;br&gt;&lt;/font&gt;" style="whiteSpace=wrap;html=1;aspect=fixed;fillColor=#FFF2CC;" parent="1" vertex="1">
          <mxGeometry x="380" y="690" width="50" height="50" as="geometry" />
        </mxCell>
        <mxCell id="rzmeEAUV-gNBz53BcbZ_-14" value="&lt;font size=&quot;3&quot;&gt;6&lt;br&gt;(3.0)&lt;br&gt;&lt;/font&gt;" style="whiteSpace=wrap;html=1;aspect=fixed;fillColor=#CCE5FF;" parent="1" vertex="1">
          <mxGeometry x="460" y="690" width="50" height="50" as="geometry" />
        </mxCell>
        <mxCell id="rzmeEAUV-gNBz53BcbZ_-15" value="&lt;font size=&quot;3&quot;&gt;8&lt;br&gt;(3.8)&lt;br&gt;&lt;/font&gt;" style="whiteSpace=wrap;html=1;aspect=fixed;fillColor=#E6D0DE;" parent="1" vertex="1">
          <mxGeometry x="540" y="690" width="50" height="50" as="geometry" />
        </mxCell>
        <mxCell id="rzmeEAUV-gNBz53BcbZ_-16" value="&lt;font size=&quot;3&quot;&gt;9&lt;br&gt;(3.7)&lt;br&gt;&lt;/font&gt;" style="whiteSpace=wrap;html=1;aspect=fixed;fillColor=#E6D0DE;" parent="1" vertex="1">
          <mxGeometry x="620" y="690" width="50" height="50" as="geometry" />
        </mxCell>
        <mxCell id="rzmeEAUV-gNBz53BcbZ_-17" value="&lt;font size=&quot;3&quot;&gt;10&lt;br&gt;(2.8)&lt;br&gt;&lt;/font&gt;" style="whiteSpace=wrap;html=1;aspect=fixed;fillColor=#E6D0DE;" parent="1" vertex="1">
          <mxGeometry x="700" y="690" width="50" height="50" as="geometry" />
        </mxCell>
        <mxCell id="rzmeEAUV-gNBz53BcbZ_-20" value="&lt;font style=&quot;font-size: 18px;&quot;&gt;=&lt;/font&gt;" style="text;html=1;strokeColor=none;fillColor=none;align=center;verticalAlign=middle;whiteSpace=wrap;rounded=0;" parent="1" vertex="1">
          <mxGeometry x="90" y="700" width="60" height="30" as="geometry" />
        </mxCell>
        <mxCell id="rzmeEAUV-gNBz53BcbZ_-21" style="edgeStyle=none;rounded=0;orthogonalLoop=1;jettySize=auto;html=1;exitX=0.5;exitY=1;exitDx=0;exitDy=0;" parent="1" source="rzmeEAUV-gNBz53BcbZ_-20" target="rzmeEAUV-gNBz53BcbZ_-20" edge="1">
          <mxGeometry relative="1" as="geometry" />
        </mxCell>
        <mxCell id="rzmeEAUV-gNBz53BcbZ_-22" value="&lt;font style=&quot;font-size: 18px;&quot;&gt;+&lt;/font&gt;" style="text;html=1;strokeColor=none;fillColor=none;align=center;verticalAlign=middle;whiteSpace=wrap;rounded=0;" parent="1" vertex="1">
          <mxGeometry x="190" y="700" width="30" height="30" as="geometry" />
        </mxCell>
        <mxCell id="rzmeEAUV-gNBz53BcbZ_-23" value="&lt;font style=&quot;font-size: 18px;&quot;&gt;+&lt;/font&gt;" style="text;html=1;strokeColor=none;fillColor=none;align=center;verticalAlign=middle;whiteSpace=wrap;rounded=0;" parent="1" vertex="1">
          <mxGeometry x="275" y="700" width="20" height="30" as="geometry" />
        </mxCell>
        <mxCell id="rzmeEAUV-gNBz53BcbZ_-24" value="&lt;font style=&quot;font-size: 18px;&quot;&gt;+&lt;/font&gt;" style="text;html=1;strokeColor=none;fillColor=none;align=center;verticalAlign=middle;whiteSpace=wrap;rounded=0;" parent="1" vertex="1">
          <mxGeometry x="596" y="700" width="20" height="30" as="geometry" />
        </mxCell>
        <mxCell id="rzmeEAUV-gNBz53BcbZ_-25" value="&lt;font style=&quot;font-size: 18px;&quot;&gt;+&lt;/font&gt;" style="text;html=1;strokeColor=none;fillColor=none;align=center;verticalAlign=middle;whiteSpace=wrap;rounded=0;" parent="1" vertex="1">
          <mxGeometry x="515" y="700" width="20" height="30" as="geometry" />
        </mxCell>
        <mxCell id="rzmeEAUV-gNBz53BcbZ_-26" value="&lt;font style=&quot;font-size: 18px;&quot;&gt;+&lt;/font&gt;" style="text;html=1;strokeColor=none;fillColor=none;align=center;verticalAlign=middle;whiteSpace=wrap;rounded=0;" parent="1" vertex="1">
          <mxGeometry x="435" y="700" width="20" height="30" as="geometry" />
        </mxCell>
        <mxCell id="rzmeEAUV-gNBz53BcbZ_-27" value="&lt;font style=&quot;font-size: 18px;&quot;&gt;+&lt;/font&gt;" style="text;html=1;strokeColor=none;fillColor=none;align=center;verticalAlign=middle;whiteSpace=wrap;rounded=0;" parent="1" vertex="1">
          <mxGeometry x="355" y="700" width="20" height="30" as="geometry" />
        </mxCell>
        <mxCell id="rzmeEAUV-gNBz53BcbZ_-28" value="&lt;font style=&quot;font-size: 18px;&quot;&gt;+&lt;/font&gt;" style="text;html=1;strokeColor=none;fillColor=none;align=center;verticalAlign=middle;whiteSpace=wrap;rounded=0;" parent="1" vertex="1">
          <mxGeometry x="675" y="700" width="20" height="30" as="geometry" />
        </mxCell>
        <mxCell id="rzmeEAUV-gNBz53BcbZ_-29" value="&lt;font style=&quot;font-size: 18px;&quot;&gt;=&lt;/font&gt;" style="text;html=1;strokeColor=none;fillColor=none;align=center;verticalAlign=middle;whiteSpace=wrap;rounded=0;" parent="1" vertex="1">
          <mxGeometry x="750" y="700" width="35" height="30" as="geometry" />
        </mxCell>
        <mxCell id="rzmeEAUV-gNBz53BcbZ_-30" value="&lt;font style=&quot;font-size: 18px;&quot;&gt;34.6&lt;/font&gt;" style="text;html=1;strokeColor=none;fillColor=none;align=center;verticalAlign=middle;whiteSpace=wrap;rounded=0;" parent="1" vertex="1">
          <mxGeometry x="767" y="700" width="60" height="30" as="geometry" />
        </mxCell>
      </root>
    </mxGraphModel>
  </diagram>
</mxfile>
